<svg width="116" height="31" viewBox="0 0 116 31" fill="none" xmlns="http://www.w3.org/2000/svg">
<path id="Bafouille" d="M19.6387 18.0371C19.6387 19.2207 19.3926 20.2988 18.9004 21.2715C18.4199 22.2441 17.7695 23.123 16.9492 23.9082C16.1406 24.6816 15.209 25.3555 14.1543 25.9297C13.1113 26.5039 12.0215 26.9844 10.8848 27.3711C9.75977 27.7695 8.62891 28.0684 7.49219 28.2676C6.36719 28.4785 5.32422 28.6016 4.36328 28.6367L4.11719 27.7578C4.89062 27.5938 5.71094 27.377 6.57812 27.1074C7.44531 26.8496 8.30078 26.5273 9.14453 26.1406C10 25.7656 10.8086 25.3262 11.5703 24.8223C12.3438 24.3184 13.0234 23.7441 13.6094 23.0996C14.1953 22.4434 14.6582 21.7227 14.998 20.9375C15.3496 20.1406 15.5254 19.2617 15.5254 18.3008C15.5254 17.5742 15.3555 16.918 15.0156 16.332C14.6875 15.7344 14.2539 15.2305 13.7148 14.8203C13.1875 14.3984 12.584 14.0762 11.9043 13.8535C11.2363 13.6191 10.5625 13.502 9.88281 13.502C9.07422 13.502 8.27734 13.6016 7.49219 13.8008C6.70703 13.9883 5.93359 14.2285 5.17188 14.5215L4.87305 13.8008C5.40039 13.5664 5.95703 13.2852 6.54297 12.957C7.14062 12.6289 7.7207 12.2656 8.2832 11.8672C8.85742 11.457 9.40234 11.0117 9.91797 10.5312C10.4336 10.0391 10.8848 9.51758 11.2715 8.9668C11.6699 8.4043 11.9863 7.81836 12.2207 7.20898C12.4551 6.58789 12.5723 5.9375 12.5723 5.25781C12.5723 4.82422 12.502 4.43164 12.3613 4.08008C12.2324 3.7168 12.0391 3.40625 11.7812 3.14844C11.5234 2.87891 11.2129 2.67383 10.8496 2.5332C10.498 2.38086 10.1055 2.30469 9.67188 2.30469C8.96875 2.30469 8.34766 2.45703 7.80859 2.76172C7.28125 3.06641 6.81836 3.4707 6.41992 3.97461C6.0332 4.47852 5.70508 5.05859 5.43555 5.71484C5.17773 6.35938 4.9668 7.02148 4.80273 7.70117C4.65039 8.38086 4.53906 9.05469 4.46875 9.72266C4.39844 10.3789 4.36328 10.9707 4.36328 11.498V25.0684L0.742188 26.3516V13.4316C0.742188 12.2949 0.871094 11.1875 1.12891 10.1094C1.38672 9.03125 1.75586 8.01172 2.23633 7.05078C2.72852 6.07813 3.32031 5.1875 4.01172 4.37891C4.71484 3.57031 5.5 2.87891 6.36719 2.30469C7.24609 1.71875 8.20117 1.26172 9.23242 0.933594C10.2754 0.605469 11.377 0.441406 12.5371 0.441406C13.0645 0.441406 13.5742 0.511719 14.0664 0.652344C14.5586 0.792969 14.9863 1.00977 15.3496 1.30273C15.7246 1.5957 16.0234 1.95898 16.2461 2.39258C16.4688 2.82617 16.5801 3.33008 16.5801 3.9043C16.5801 4.52539 16.4512 5.14062 16.1934 5.75C15.9473 6.34766 15.6133 6.93359 15.1914 7.50781C14.7695 8.08203 14.2891 8.63281 13.75 9.16016C13.2109 9.67578 12.6484 10.1562 12.0625 10.6016C11.4883 11.0469 10.9141 11.4453 10.3398 11.7969C9.76562 12.1484 9.23828 12.4414 8.75781 12.6758C9.95312 12.3945 11.1777 12.2539 12.4316 12.2539C13.3457 12.2539 14.2305 12.3652 15.0859 12.5879C15.9531 12.7988 16.7207 13.1387 17.3887 13.6074C18.0684 14.0645 18.6133 14.6621 19.0234 15.4004C19.4336 16.127 19.6387 17.0059 19.6387 18.0371ZM36.2676 23.9082C36.127 24.2129 35.9512 24.5 35.7402 24.7695C35.5293 25.0391 35.2832 25.2793 35.002 25.4902C34.7324 25.7012 34.4336 25.8711 34.1055 26C33.7891 26.1172 33.4551 26.1758 33.1035 26.1758C32.1777 26.1758 31.5098 25.9238 31.0996 25.4199C30.7012 24.9043 30.502 24.207 30.502 23.3281V23.0117C30.291 23.4102 30.0508 23.8086 29.7812 24.207C29.5234 24.6055 29.2246 24.9629 28.8848 25.2793C28.5566 25.5957 28.1875 25.8535 27.7773 26.0527C27.3672 26.252 26.9102 26.3516 26.4062 26.3516C25.6445 26.3516 24.9707 26.2051 24.3848 25.9121C23.7988 25.6191 23.3066 25.2266 22.9082 24.7344C22.5098 24.2305 22.2109 23.6445 22.0117 22.9766C21.8125 22.3086 21.7129 21.5996 21.7129 20.8496C21.7129 19.8301 21.8887 18.8164 22.2402 17.8086C22.6035 16.7891 23.1074 15.8809 23.752 15.084C24.4082 14.2871 25.1875 13.6426 26.0898 13.1504C27.0039 12.6465 28.0176 12.3945 29.1309 12.3945C29.5762 12.3945 30.0215 12.4355 30.4668 12.5176C30.9121 12.5996 31.334 12.7344 31.7324 12.9219C32.1426 13.0977 32.5117 13.332 32.8398 13.625C33.1797 13.918 33.4551 14.2754 33.666 14.6973L31.0469 15.8047C30.9062 15.582 30.7422 15.3711 30.5547 15.1719C30.3789 14.9609 30.1797 14.7793 29.957 14.627C29.7461 14.4746 29.5176 14.3516 29.2715 14.2578C29.0254 14.1641 28.7676 14.1172 28.498 14.1172C27.8887 14.1172 27.3438 14.3047 26.8633 14.6797C26.3945 15.0547 25.9902 15.5176 25.6504 16.0684C25.3223 16.6191 25.0703 17.2051 24.8945 17.8262C24.7188 18.4473 24.6309 19.0098 24.6309 19.5137C24.6309 19.959 24.6719 20.4629 24.7539 21.0254C24.8477 21.5762 25.0059 22.0977 25.2285 22.5898C25.4512 23.082 25.7441 23.498 26.1074 23.8379C26.4707 24.1777 26.9277 24.3477 27.4785 24.3477C27.9121 24.3477 28.2871 24.2539 28.6035 24.0664C28.9199 23.8672 29.1895 23.6152 29.4121 23.3105C29.6348 22.9941 29.8164 22.6367 29.957 22.2383C30.1094 21.8281 30.2207 21.4121 30.291 20.9902C30.373 20.5684 30.4258 20.1523 30.4492 19.7422C30.4844 19.3203 30.502 18.9453 30.502 18.6172V17.4043L33.7012 16.2793V23.416C33.7012 23.6504 33.7598 23.8672 33.877 24.0664C33.9941 24.2539 34.1758 24.3477 34.4219 24.3477C34.7148 24.3477 34.9785 24.2422 35.2129 24.0312C35.459 23.8086 35.6523 23.5859 35.793 23.3633L36.2676 23.9082ZM49.0293 2.39258L46.832 3.81641C46.6328 3.27734 46.3281 2.81445 45.918 2.42773C45.5195 2.04102 45.0098 1.84766 44.3887 1.84766C43.8848 1.84766 43.4805 1.96484 43.1758 2.19922C42.8711 2.42188 42.6367 2.71484 42.4727 3.07812C42.3203 3.42969 42.2148 3.82227 42.1562 4.25586C42.1094 4.67773 42.0859 5.08789 42.0859 5.48633V12.3945H46.6914L45.9355 14.1523H42.0859V29.5684L38.834 30.9395V14.1523H37.0762L37.832 12.3945H38.834V8.65039C38.834 7.68945 38.9395 6.72852 39.1504 5.76758C39.3613 4.79492 39.7129 3.92188 40.2051 3.14844C40.6973 2.375 41.3418 1.74805 42.1387 1.26758C42.9355 0.787109 43.9141 0.546875 45.0742 0.546875C45.4258 0.546875 45.7832 0.587891 46.1465 0.669922C46.5215 0.751953 46.8848 0.875 47.2363 1.03906C47.5879 1.19141 47.916 1.38477 48.2207 1.61914C48.5371 1.8418 48.8066 2.09961 49.0293 2.39258ZM53.125 26.4043C52.2578 26.4043 51.4434 26.252 50.6816 25.9473C49.9316 25.6309 49.2754 25.1973 48.7129 24.6465C48.1621 24.0957 47.7227 23.4512 47.3945 22.7129C47.0781 21.9629 46.9199 21.1484 46.9199 20.2695C46.9199 19.2734 47.084 18.3418 47.4121 17.4746C47.7402 16.5957 48.1914 15.8047 48.7656 15.1016C49.3516 14.3984 50.0371 13.7891 50.8223 13.2734C51.6191 12.7578 52.4805 12.3535 53.4062 12.0605L53.916 12.6758C53.3887 13.0625 52.8965 13.5078 52.4395 14.0117C51.9824 14.5039 51.584 15.043 51.2441 15.6289C50.9043 16.2031 50.6348 16.8125 50.4355 17.457C50.2363 18.0898 50.1367 18.7402 50.1367 19.4082C50.1367 19.9707 50.2188 20.5625 50.3828 21.1836C50.5469 21.8047 50.793 22.373 51.1211 22.8887C51.4492 23.4043 51.8594 23.832 52.3516 24.1719C52.8555 24.5 53.4355 24.6641 54.0918 24.6641C54.6777 24.6641 55.1816 24.5586 55.6035 24.3477C56.0371 24.1367 56.3945 23.8496 56.6758 23.4863C56.957 23.123 57.168 22.7012 57.3086 22.2207C57.4492 21.7285 57.5195 21.2129 57.5195 20.6738C57.5195 20.041 57.3965 19.3965 57.1504 18.7402C56.9043 18.0723 56.5645 17.457 56.1309 16.8945C55.709 16.332 55.2109 15.8633 54.6367 15.4883C54.0625 15.1133 53.4473 14.8965 52.791 14.8379C53.2012 14.3691 53.6523 13.9355 54.1445 13.5371C54.6367 13.1387 55.1348 12.7578 55.6387 12.3945C56.3184 12.6172 56.916 12.9453 57.4316 13.3789C57.959 13.8125 58.3984 14.3105 58.75 14.873C59.1133 15.4355 59.3887 16.0508 59.5762 16.7188C59.7637 17.375 59.8574 18.043 59.8574 18.7227C59.8574 19.6484 59.6934 20.5684 59.3652 21.4824C59.0488 22.3965 58.5918 23.2227 57.9941 23.9609C57.4082 24.6875 56.6992 25.2793 55.8672 25.7363C55.0469 26.1816 54.1328 26.4043 53.125 26.4043ZM76.9082 23.9434C76.6387 24.5176 76.3223 24.957 75.959 25.2617C75.5957 25.5664 75.25 25.7891 74.9219 25.9297C74.5352 26.0938 74.1426 26.1875 73.7441 26.2109C73.2168 26.2109 72.7832 26.1289 72.4434 25.9648C72.1152 25.8008 71.8516 25.584 71.6523 25.3145C71.4531 25.0449 71.3125 24.7402 71.2305 24.4004C71.1602 24.0605 71.125 23.7148 71.125 23.3633V17.7559C71.0312 18.1777 70.9082 18.6816 70.7559 19.2676C70.6152 19.8535 70.4395 20.4688 70.2285 21.1133C70.0176 21.7461 69.7715 22.3789 69.4902 23.0117C69.209 23.6328 68.8809 24.1895 68.5059 24.6816C68.1426 25.1738 67.7266 25.5781 67.2578 25.8945C66.8008 26.1992 66.2852 26.3516 65.7109 26.3516C65.2305 26.3516 64.8496 26.2578 64.5684 26.0703C64.2988 25.8945 64.0938 25.6426 63.9531 25.3145C63.8242 24.9746 63.7422 24.5762 63.707 24.1191C63.6836 23.6504 63.6719 23.1348 63.6719 22.5723V14.9434C63.6719 14.6621 63.6074 14.4395 63.4785 14.2754C63.3496 14.1113 63.1797 14.0293 62.9688 14.0293C62.7695 14.0176 62.5469 14.0879 62.3008 14.2402C62.0547 14.3926 61.8145 14.6387 61.5801 14.9785L61.1055 14.4512C61.375 13.8887 61.6855 13.4551 62.0371 13.1504C62.3887 12.834 62.7344 12.6055 63.0742 12.4648C63.4609 12.3008 63.8594 12.207 64.2695 12.1836C64.7969 12.1836 65.2246 12.2656 65.5527 12.4297C65.8926 12.5938 66.1562 12.8105 66.3438 13.0801C66.543 13.3379 66.6777 13.6367 66.748 13.9766C66.8301 14.3164 66.8711 14.6621 66.8711 15.0137V22.291C66.8711 22.748 66.9531 23.0469 67.1172 23.1875C67.2812 23.3281 67.4922 23.3105 67.75 23.1348C68.0195 22.9473 68.3125 22.6133 68.6289 22.1328C68.957 21.6406 69.2852 20.9961 69.6133 20.1992C69.8242 19.4375 70.0293 18.6523 70.2285 17.8438C70.3926 17.1523 70.5566 16.3906 70.7207 15.5586C70.8965 14.7266 71.0312 13.9238 71.125 13.1504L74.3594 12.0254V23.4512C74.3594 23.7324 74.4238 23.9551 74.5527 24.1191C74.6816 24.2832 74.8457 24.3711 75.0449 24.3828C75.2441 24.3828 75.4609 24.3066 75.6953 24.1543C75.9414 24.002 76.1816 23.7559 76.416 23.416L76.9082 23.9434ZM82.6387 3.06055L81.707 9.47656L79.9844 10.0215L78.9297 4.32617L82.6387 3.06055ZM85.0645 23.9434C84.7949 24.5176 84.4785 24.957 84.1152 25.2617C83.7637 25.5664 83.4238 25.7891 83.0957 25.9297C82.709 26.0938 82.3164 26.1875 81.918 26.2109C81.4023 26.2109 80.9746 26.1289 80.6348 25.9648C80.2949 25.8008 80.0254 25.584 79.8262 25.3145C79.627 25.0449 79.4863 24.7402 79.4043 24.4004C79.334 24.0605 79.2988 23.7148 79.2988 23.3633V13.502L82.5332 12.3945V23.4512C82.5332 23.7324 82.5977 23.9551 82.7266 24.1191C82.8555 24.2832 83.0195 24.3711 83.2188 24.3828C83.4297 24.3828 83.6523 24.3066 83.8867 24.1543C84.1328 24.002 84.3672 23.7559 84.5898 23.416L85.0645 23.9434ZM93.3262 23.9434C93.1855 24.248 93.0039 24.5352 92.7812 24.8047C92.5703 25.0742 92.3301 25.3145 92.0605 25.5254C91.791 25.7363 91.4922 25.9004 91.1641 26.0176C90.8477 26.1465 90.5195 26.2109 90.1797 26.2109C89.2656 26.2109 88.5977 25.959 88.1758 25.4551C87.7656 24.9395 87.5605 24.2422 87.5605 23.3633V1.91797L90.7949 0.792969V23.4512C90.7949 23.6855 90.8477 23.9023 90.9531 24.1016C91.0586 24.2891 91.2461 24.3828 91.5156 24.3828C91.7852 24.3828 92.0371 24.2773 92.2715 24.0664C92.5176 23.8438 92.7109 23.627 92.8516 23.416L93.3262 23.9434ZM101.588 23.9434C101.447 24.248 101.266 24.5352 101.043 24.8047C100.832 25.0742 100.592 25.3145 100.322 25.5254C100.053 25.7363 99.7539 25.9004 99.4258 26.0176C99.1094 26.1465 98.7812 26.2109 98.4414 26.2109C97.5273 26.2109 96.8594 25.959 96.4375 25.4551C96.0273 24.9395 95.8223 24.2422 95.8223 23.3633V1.91797L99.0566 0.792969V23.4512C99.0566 23.6855 99.1094 23.9023 99.2148 24.1016C99.3203 24.2891 99.5078 24.3828 99.7773 24.3828C100.047 24.3828 100.299 24.2773 100.533 24.0664C100.779 23.8438 100.973 23.627 101.113 23.416L101.588 23.9434ZM115.562 22.5723C115.152 23.0996 114.701 23.5918 114.209 24.0488C113.729 24.5059 113.201 24.9043 112.627 25.2441C112.064 25.584 111.467 25.8535 110.834 26.0527C110.201 26.252 109.545 26.3516 108.865 26.3516C107.998 26.3516 107.201 26.1992 106.475 25.8945C105.748 25.5781 105.121 25.1504 104.594 24.6113C104.066 24.0605 103.656 23.416 103.363 22.6777C103.07 21.9277 102.924 21.125 102.924 20.2695C102.924 19.5664 103.023 18.875 103.223 18.1953C103.422 17.5156 103.703 16.877 104.066 16.2793C104.43 15.6816 104.857 15.1309 105.35 14.627C105.854 14.1113 106.404 13.6719 107.002 13.3086C107.6 12.9453 108.232 12.6641 108.9 12.4648C109.568 12.2539 110.254 12.1484 110.957 12.1484C111.449 12.1484 111.912 12.207 112.346 12.3242C112.791 12.4414 113.184 12.6289 113.523 12.8867C113.863 13.1328 114.133 13.4551 114.332 13.8535C114.531 14.2402 114.631 14.7031 114.631 15.2422C114.631 15.6875 114.496 16.1562 114.227 16.6484C113.969 17.1406 113.623 17.6328 113.189 18.125C112.768 18.6172 112.287 19.1035 111.748 19.584C111.209 20.0527 110.658 20.4922 110.096 20.9023C109.545 21.3008 109.012 21.6523 108.496 21.957C107.98 22.2617 107.529 22.4961 107.143 22.6602C107.576 23.1992 108.08 23.6387 108.654 23.9785C109.229 24.3184 109.838 24.4883 110.482 24.4883C110.893 24.4883 111.309 24.4121 111.73 24.2598C112.152 24.0957 112.557 23.8906 112.943 23.6445C113.342 23.3984 113.717 23.1289 114.068 22.8359C114.432 22.543 114.754 22.2676 115.035 22.0098L115.562 22.5723ZM111.326 15.8926C111.326 15.623 111.279 15.3652 111.186 15.1191C111.104 14.873 110.98 14.6621 110.816 14.4863C110.652 14.2988 110.453 14.1523 110.219 14.0469C109.996 13.9297 109.738 13.8711 109.445 13.8711C108.918 13.8711 108.432 14.0586 107.986 14.4336C107.541 14.7969 107.154 15.248 106.826 15.7871C106.51 16.3262 106.258 16.9004 106.07 17.5098C105.895 18.1074 105.807 18.6348 105.807 19.0918C105.807 19.5371 105.877 19.9941 106.018 20.4629C106.158 20.9316 106.352 21.3828 106.598 21.8164C107.066 21.5586 107.576 21.2012 108.127 20.7441C108.678 20.2871 109.188 19.7891 109.656 19.25C110.137 18.6992 110.535 18.1309 110.852 17.5449C111.168 16.959 111.326 16.4082 111.326 15.8926Z" fill="black"/>
</svg>
